<svg xmlns="http://www.w3.org/2000/svg" xmlns:xlink="http://www.w3.org/1999/xlink" width="512" zoomAndPan="magnify" viewBox="0 0 384 383.999986" height="512" preserveAspectRatio="xMidYMid meet" version="1.0"><defs><clipPath id="694cc601e3"><path d="M 0 0 L 43.527344 0 L 43.527344 384 L 0 384 Z M 0 0 " clip-rule="nonzero"/></clipPath><clipPath id="baa78c5f33"><path d="M 0 0 L 43.527344 0 L 43.527344 384 L 0 384 Z M 0 0 " clip-rule="nonzero"/></clipPath><clipPath id="69832026c0"><rect x="0" width="44" y="0" height="384"/></clipPath><clipPath id="10c1ca0da6"><path d="M 193.078125 47.714844 L 363.933594 47.714844 L 363.933594 335.363281 L 193.078125 335.363281 Z M 193.078125 47.714844 " clip-rule="nonzero"/></clipPath><clipPath id="8b3fdbf478"><path d="M 363.933594 191.582031 L 193.078125 47.796875 L 193.078125 335.363281 Z M 363.933594 191.582031 " clip-rule="nonzero"/></clipPath><clipPath id="f1ea5acdee"><path d="M 0.078125 0.761719 L 170.933594 0.761719 L 170.933594 288.363281 L 0.078125 288.363281 Z M 0.078125 0.761719 " clip-rule="nonzero"/></clipPath><clipPath id="886bcbc443"><path d="M 170.933594 144.582031 L 0.078125 0.796875 L 0.078125 288.363281 Z M 170.933594 144.582031 " clip-rule="nonzero"/></clipPath><clipPath id="76b9a6dcbf"><rect x="0" width="171" y="0" height="289"/></clipPath><clipPath id="df4f191023"><path d="M 75.542969 47.589844 L 192.898438 47.589844 L 192.898438 335.277344 L 75.542969 335.277344 Z M 75.542969 47.589844 " clip-rule="nonzero"/></clipPath><clipPath id="7a84ad4e2f"><path d="M 0.542969 0.589844 L 117.898438 0.589844 L 117.898438 288.277344 L 0.542969 288.277344 Z M 0.542969 0.589844 " clip-rule="nonzero"/></clipPath><clipPath id="2cdbfe6a55"><rect x="0" width="118" y="0" height="289"/></clipPath><clipPath id="567aad3da1"><path d="M 139.605469 61.371094 L 229.34375 61.371094 L 229.34375 325.75 L 139.605469 325.75 Z M 139.605469 61.371094 " clip-rule="nonzero"/></clipPath><clipPath id="3959ec0a80"><path d="M 218.375 97.765625 C 220.625 145.539062 230.523438 212.664062 228.949219 241.390625 C 228.050781 257.589844 228.949219 267.339844 221.675781 279.113281 C 211.625 295.316406 175.550781 322.238281 163.851562 322.988281 C 159.125 323.289062 156.5 319.390625 153.351562 316.914062 C 150.273438 314.363281 147.5 311.140625 145.398438 307.765625 C 143.226562 304.390625 141.574219 300.488281 140.675781 296.589844 C 139.773438 292.691406 139.476562 288.488281 139.773438 284.515625 C 140.148438 280.539062 141.199219 276.414062 142.851562 272.738281 C 144.425781 269.066406 146.824219 265.539062 149.449219 262.539062 C 152.148438 259.613281 155.523438 256.988281 158.976562 255.039062 C 162.5 253.164062 166.550781 251.738281 170.449219 250.988281 C 174.351562 250.316406 178.625 250.238281 182.601562 250.765625 C 186.5 251.363281 190.550781 252.640625 194.148438 254.441406 C 197.675781 256.238281 201.125 258.789062 203.898438 261.640625 C 206.75 264.488281 209.148438 267.941406 210.875 271.539062 C 212.675781 275.140625 213.875 279.191406 214.324219 283.164062 C 214.851562 287.140625 214.699219 291.414062 213.875 295.316406 C 213.125 299.214844 211.625 303.191406 209.601562 306.640625 C 207.648438 310.089844 204.949219 313.390625 201.949219 316.015625 C 198.949219 318.714844 195.351562 320.964844 191.601562 322.464844 C 187.925781 324.039062 183.800781 325.015625 179.824219 325.316406 C 175.851562 325.539062 171.574219 325.164062 167.75 324.191406 C 163.851562 323.214844 160.023438 321.488281 156.648438 319.316406 C 153.273438 317.066406 150.199219 314.214844 147.726562 311.066406 C 145.25 307.988281 143.148438 304.238281 141.800781 300.488281 C 140.523438 296.738281 139.699219 292.539062 139.625 288.566406 C 139.625 284.515625 140.226562 280.316406 141.425781 276.566406 C 142.625 272.738281 144.574219 268.914062 146.898438 265.691406 C 149.300781 262.464844 152.300781 259.539062 155.601562 257.214844 C 158.824219 254.890625 162.648438 253.089844 166.476562 251.964844 C 170.300781 250.765625 174.574219 250.238281 178.550781 250.390625 C 182.523438 250.539062 190.398438 252.941406 190.398438 252.789062 C 190.476562 252.566406 159.574219 250.988281 153.050781 242.964844 C 146.601562 235.015625 152.226562 218.066406 151.25 205.316406 C 150.273438 191.964844 148.25 178.238281 147.125 164.664062 C 145.925781 151.015625 144.875 135.488281 144.273438 123.789062 C 143.75 114.941406 143.226562 106.464844 143.375 100.464844 C 143.523438 96.789062 143.523438 94.390625 144.199219 91.464844 C 144.800781 88.539062 145.773438 85.613281 147.050781 82.914062 C 148.324219 80.214844 150.050781 77.589844 151.925781 75.265625 C 153.800781 73.015625 156.050781 70.839844 158.449219 69.039062 C 160.851562 67.238281 163.550781 65.738281 166.324219 64.539062 C 169.101562 63.414062 172.023438 62.589844 175.023438 62.066406 C 177.949219 61.613281 181.023438 61.539062 184.023438 61.765625 C 187.023438 61.988281 190.023438 62.664062 192.875 63.566406 C 195.726562 64.539062 198.5 65.890625 201.050781 67.539062 C 203.601562 69.113281 205.925781 71.066406 208.023438 73.238281 C 210.125 75.414062 211.925781 77.890625 213.425781 80.515625 C 214.925781 83.066406 216.125 85.988281 216.949219 88.839844 C 217.773438 91.691406 218.375 97.765625 218.375 97.765625 " clip-rule="nonzero"/></clipPath><clipPath id="a440be9f9e"><path d="M 0.605469 0.441406 L 90.34375 0.441406 L 90.34375 264.679688 L 0.605469 264.679688 Z M 0.605469 0.441406 " clip-rule="nonzero"/></clipPath><clipPath id="c6182f4991"><path d="M 79.375 36.765625 C 81.625 84.539062 91.523438 151.664062 89.949219 180.390625 C 89.050781 196.589844 89.949219 206.339844 82.675781 218.113281 C 72.625 234.316406 36.550781 261.238281 24.851562 261.988281 C 20.125 262.289062 17.5 258.390625 14.351562 255.914062 C 11.273438 253.363281 8.5 250.140625 6.398438 246.765625 C 4.226562 243.390625 2.574219 239.488281 1.675781 235.589844 C 0.773438 231.691406 0.476562 227.488281 0.773438 223.515625 C 1.148438 219.539062 2.199219 215.414062 3.851562 211.738281 C 5.425781 208.066406 7.824219 204.539062 10.449219 201.539062 C 13.148438 198.613281 16.523438 195.988281 19.976562 194.039062 C 23.5 192.164062 27.550781 190.738281 31.449219 189.988281 C 35.351562 189.316406 39.625 189.238281 43.601562 189.765625 C 47.5 190.363281 51.550781 191.640625 55.148438 193.441406 C 58.675781 195.238281 62.125 197.789062 64.898438 200.640625 C 67.75 203.488281 70.148438 206.941406 71.875 210.539062 C 73.675781 214.140625 74.875 218.191406 75.324219 222.164062 C 75.851562 226.140625 75.699219 230.414062 74.875 234.316406 C 74.125 238.214844 72.625 242.191406 70.601562 245.640625 C 68.648438 249.089844 65.949219 252.390625 62.949219 255.015625 C 59.949219 257.714844 56.351562 259.964844 52.601562 261.464844 C 48.925781 263.039062 44.800781 264.015625 40.824219 264.316406 C 36.851562 264.539062 32.574219 264.164062 28.75 263.191406 C 24.851562 262.214844 21.023438 260.488281 17.648438 258.316406 C 14.273438 256.066406 11.199219 253.214844 8.726562 250.066406 C 6.25 246.988281 4.148438 243.238281 2.800781 239.488281 C 1.523438 235.738281 0.699219 231.539062 0.625 227.566406 C 0.625 223.515625 1.226562 219.316406 2.425781 215.566406 C 3.625 211.738281 5.574219 207.914062 7.898438 204.691406 C 10.300781 201.464844 13.300781 198.539062 16.601562 196.214844 C 19.824219 193.890625 23.648438 192.089844 27.476562 190.964844 C 31.300781 189.765625 35.574219 189.238281 39.550781 189.390625 C 43.523438 189.539062 51.398438 191.941406 51.398438 191.789062 C 51.476562 191.566406 20.574219 189.988281 14.050781 181.964844 C 7.601562 174.015625 13.226562 157.066406 12.25 144.316406 C 11.273438 130.964844 9.25 117.238281 8.125 103.664062 C 6.925781 90.015625 5.875 74.488281 5.273438 62.789062 C 4.75 53.941406 4.226562 45.464844 4.375 39.464844 C 4.523438 35.789062 4.523438 33.390625 5.199219 30.464844 C 5.800781 27.539062 6.773438 24.613281 8.050781 21.914062 C 9.324219 19.214844 11.050781 16.589844 12.925781 14.265625 C 14.800781 12.015625 17.050781 9.839844 19.449219 8.039062 C 21.851562 6.238281 24.550781 4.738281 27.324219 3.539062 C 30.101562 2.414062 33.023438 1.589844 36.023438 1.066406 C 38.949219 0.613281 42.023438 0.539062 45.023438 0.765625 C 48.023438 0.988281 51.023438 1.664062 53.875 2.566406 C 56.726562 3.539062 59.5 4.890625 62.050781 6.539062 C 64.601562 8.113281 66.925781 10.066406 69.023438 12.238281 C 71.125 14.414062 72.925781 16.890625 74.425781 19.515625 C 75.925781 22.066406 77.125 24.988281 77.949219 27.839844 C 78.773438 30.691406 79.375 36.765625 79.375 36.765625 " clip-rule="nonzero"/></clipPath><clipPath id="f7d8359857"><rect x="0" width="91" y="0" height="265"/></clipPath><clipPath id="3d1a4d320e"><path d="M 184.292969 106.804688 L 199 106.804688 L 199 332.050781 L 184.292969 332.050781 Z M 184.292969 106.804688 " clip-rule="nonzero"/></clipPath><clipPath id="6389db1fba"><path d="M 184.324219 326.738281 C 186.199219 209.664062 187.773438 193.164062 188.148438 173.515625 C 188.601562 153.039062 185 118.914062 187.925781 110.890625 C 188.75 108.640625 189.949219 107.816406 191.148438 107.214844 C 192.125 106.691406 193.476562 106.765625 194.523438 107.066406 C 195.5 107.289062 196.625 108.113281 197.226562 108.941406 C 197.898438 109.765625 198.351562 111.039062 198.273438 112.089844 C 198.273438 113.214844 197.976562 114.488281 197.226562 115.316406 C 196.324219 116.289062 194.074219 117.265625 192.726562 117.339844 C 191.601562 117.339844 190.398438 116.890625 189.648438 116.066406 C 188.675781 115.089844 187.773438 112.839844 187.851562 111.488281 C 187.851562 110.363281 188.523438 109.238281 189.273438 108.414062 C 190.023438 107.664062 191.226562 107.066406 192.273438 106.914062 C 193.324219 106.765625 194.601562 106.988281 195.574219 107.441406 C 196.476562 107.964844 197.226562 108.566406 197.824219 109.914062 C 199.25 113.363281 198.648438 122.441406 198.875 130.539062 C 199.101562 142.316406 199.023438 158.289062 198.648438 173.738281 C 198.199219 191.589844 196.699219 209.816406 196.101562 231.488281 C 195.273438 259.238281 195.949219 318.039062 194.824219 326.738281 C 194.601562 328.164062 194.601562 328.464844 194.226562 329.214844 C 193.851562 329.890625 193.324219 330.640625 192.574219 331.089844 C 191.601562 331.613281 190.101562 332.140625 188.898438 331.988281 C 187.773438 331.839844 186.425781 331.089844 185.601562 330.265625 C 184.851562 329.363281 184.324219 326.738281 184.324219 326.738281 " clip-rule="nonzero"/></clipPath><clipPath id="61ffde7ca1"><path d="M 0.320312 0.804688 L 15 0.804688 L 15 226.050781 L 0.320312 226.050781 Z M 0.320312 0.804688 " clip-rule="nonzero"/></clipPath><clipPath id="48c54d679f"><path d="M 0.324219 220.738281 C 2.199219 103.664062 3.773438 87.164062 4.148438 67.515625 C 4.601562 47.039062 1 12.914062 3.925781 4.890625 C 4.75 2.640625 5.949219 1.816406 7.148438 1.214844 C 8.125 0.691406 9.476562 0.765625 10.523438 1.066406 C 11.5 1.289062 12.625 2.113281 13.226562 2.941406 C 13.898438 3.765625 14.351562 5.039062 14.273438 6.089844 C 14.273438 7.214844 13.976562 8.488281 13.226562 9.316406 C 12.324219 10.289062 10.074219 11.265625 8.726562 11.339844 C 7.601562 11.339844 6.398438 10.890625 5.648438 10.066406 C 4.675781 9.089844 3.773438 6.839844 3.851562 5.488281 C 3.851562 4.363281 4.523438 3.238281 5.273438 2.414062 C 6.023438 1.664062 7.226562 1.066406 8.273438 0.914062 C 9.324219 0.765625 10.601562 0.988281 11.574219 1.441406 C 12.476562 1.964844 13.226562 2.566406 13.824219 3.914062 C 15.25 7.363281 14.648438 16.441406 14.875 24.539062 C 15.101562 36.316406 15.023438 52.289062 14.648438 67.738281 C 14.199219 85.589844 12.699219 103.816406 12.101562 125.488281 C 11.273438 153.238281 11.949219 212.039062 10.824219 220.738281 C 10.601562 222.164062 10.601562 222.464844 10.226562 223.214844 C 9.851562 223.890625 9.324219 224.640625 8.574219 225.089844 C 7.601562 225.613281 6.101562 226.140625 4.898438 225.988281 C 3.773438 225.839844 2.425781 225.089844 1.601562 224.265625 C 0.851562 223.363281 0.324219 220.738281 0.324219 220.738281 " clip-rule="nonzero"/></clipPath><clipPath id="c3169718c5"><rect x="0" width="15" y="0" height="227"/></clipPath><clipPath id="29c9d40e84"><path d="M 184.566406 49.929688 L 195.34375 49.929688 L 195.34375 60.839844 L 184.566406 60.839844 Z M 184.566406 49.929688 " clip-rule="nonzero"/></clipPath><clipPath id="d160ec711e"><path d="M 185.601562 58.316406 C 184.625 55.464844 184.550781 54.039062 185.074219 53.066406 C 185.675781 51.863281 187.476562 50.289062 188.898438 49.988281 C 190.324219 49.765625 192.574219 50.441406 193.625 51.488281 C 194.601562 52.539062 195.273438 54.789062 194.976562 56.214844 C 194.75 57.640625 193.25 59.441406 191.898438 60.039062 C 190.550781 60.566406 188.226562 60.339844 186.949219 59.589844 C 185.75 58.765625 184.625 56.664062 184.625 55.238281 C 184.550781 53.816406 185.675781 51.714844 186.875 50.890625 C 188 50.066406 190.398438 49.839844 191.75 50.289062 C 192.875 50.589844 193.925781 51.714844 194.523438 52.765625 C 195.125 53.738281 195.425781 55.238281 195.273438 56.363281 C 195.050781 57.566406 194.148438 58.914062 193.398438 59.589844 C 192.726562 60.191406 191.898438 60.488281 191.074219 60.640625 C 190.324219 60.863281 189.425781 60.863281 188.601562 60.566406 C 187.625 60.191406 185.601562 58.316406 185.601562 58.316406 " clip-rule="nonzero"/></clipPath><clipPath id="e28f63073a"><path d="M 0.566406 0.929688 L 11.34375 0.929688 L 11.34375 11.839844 L 0.566406 11.839844 Z M 0.566406 0.929688 " clip-rule="nonzero"/></clipPath><clipPath id="708cf090fb"><path d="M 1.601562 9.316406 C 0.625 6.464844 0.550781 5.039062 1.074219 4.066406 C 1.675781 2.863281 3.476562 1.289062 4.898438 0.988281 C 6.324219 0.765625 8.574219 1.441406 9.625 2.488281 C 10.601562 3.539062 11.273438 5.789062 10.976562 7.214844 C 10.75 8.640625 9.25 10.441406 7.898438 11.039062 C 6.550781 11.566406 4.226562 11.339844 2.949219 10.589844 C 1.75 9.765625 0.625 7.664062 0.625 6.238281 C 0.550781 4.816406 1.675781 2.714844 2.875 1.890625 C 4 1.066406 6.398438 0.839844 7.75 1.289062 C 8.875 1.589844 9.925781 2.714844 10.523438 3.765625 C 11.125 4.738281 11.425781 6.238281 11.273438 7.363281 C 11.050781 8.566406 10.148438 9.914062 9.398438 10.589844 C 8.726562 11.191406 7.898438 11.488281 7.074219 11.640625 C 6.324219 11.863281 5.425781 11.863281 4.601562 11.566406 C 3.625 11.191406 1.601562 9.316406 1.601562 9.316406 " clip-rule="nonzero"/></clipPath><clipPath id="59012d5102"><rect x="0" width="12" y="0" height="12"/></clipPath><clipPath id="862242cabb"><path d="M 183.65625 322.292969 L 195.210938 322.292969 L 195.210938 334.730469 L 183.65625 334.730469 Z M 183.65625 322.292969 " clip-rule="nonzero"/></clipPath><clipPath id="b79215d710"><path d="M 184.925781 325.558594 C 188.148438 322.601562 189.351562 322.121094 190.476562 322.363281 C 191.824219 322.601562 193.851562 323.960938 194.601562 325.320312 C 195.273438 326.679688 195.273438 329.15625 194.601562 330.515625 C 193.925781 331.875 191.976562 333.3125 190.550781 333.472656 C 189.050781 333.632812 186.875 332.753906 185.976562 331.554688 C 185 330.355469 184.476562 327.957031 184.851562 326.4375 C 185.226562 324.921875 186.875 323.160156 188.226562 322.601562 C 189.648438 322.121094 191.976562 322.523438 193.101562 323.480469 C 194.226562 324.359375 195.199219 326.679688 195.199219 328.199219 C 195.125 329.71875 194 331.636719 192.949219 332.753906 C 192.125 333.714844 190.851562 334.511719 189.726562 334.671875 C 188.601562 334.832031 187.023438 334.511719 186.050781 333.875 C 185.074219 333.15625 184.25 331.714844 183.875 330.597656 C 183.648438 329.71875 183.648438 328.757812 183.800781 327.957031 C 184.023438 327.078125 184.925781 325.558594 184.925781 325.558594 " clip-rule="nonzero"/></clipPath><clipPath id="72142ffa34"><path d="M 0.65625 0.292969 L 12.210938 0.292969 L 12.210938 12.730469 L 0.65625 12.730469 Z M 0.65625 0.292969 " clip-rule="nonzero"/></clipPath><clipPath id="29e7840dec"><path d="M 1.925781 3.558594 C 5.148438 0.601562 6.351562 0.121094 7.476562 0.363281 C 8.824219 0.601562 10.851562 1.960938 11.601562 3.320312 C 12.273438 4.679688 12.273438 7.15625 11.601562 8.515625 C 10.925781 9.875 8.976562 11.3125 7.550781 11.472656 C 6.050781 11.632812 3.875 10.753906 2.976562 9.554688 C 2 8.355469 1.476562 5.957031 1.851562 4.4375 C 2.226562 2.921875 3.875 1.160156 5.226562 0.601562 C 6.648438 0.121094 8.976562 0.523438 10.101562 1.480469 C 11.226562 2.359375 12.199219 4.679688 12.199219 6.199219 C 12.125 7.71875 11 9.636719 9.949219 10.753906 C 9.125 11.714844 7.851562 12.511719 6.726562 12.671875 C 5.601562 12.832031 4.023438 12.511719 3.050781 11.875 C 2.074219 11.15625 1.25 9.714844 0.875 8.597656 C 0.648438 7.71875 0.648438 6.757812 0.800781 5.957031 C 1.023438 5.078125 1.925781 3.558594 1.925781 3.558594 " clip-rule="nonzero"/></clipPath><clipPath id="c3c27fda50"><rect x="0" width="13" y="0" height="13"/></clipPath><clipPath id="5f5b4e223e"><path d="M 185.316406 47.660156 L 198.847656 47.660156 L 198.847656 117.296875 L 185.316406 117.296875 Z M 185.316406 47.660156 " clip-rule="nonzero"/></clipPath><clipPath id="1bf12813b7"><path d="M 187.773438 111.824219 C 187.324219 65.503906 184.851562 57.695312 185.449219 53.398438 C 185.824219 51.289062 186.574219 49.726562 187.550781 48.789062 C 188.375 48.007812 189.648438 47.617188 190.773438 47.695312 C 192.125 47.773438 194.226562 49.023438 195.050781 50.117188 C 195.800781 51.054688 196.023438 52.382812 195.949219 53.476562 C 195.875 54.570312 195.425781 55.898438 194.75 56.679688 C 194 57.539062 192.875 58.242188 191.824219 58.476562 C 190.773438 58.710938 189.5 58.710938 188.523438 58.085938 C 187.324219 57.382812 185.75 55.507812 185.523438 54.023438 C 185.300781 52.539062 186.199219 50.195312 187.101562 49.179688 C 187.925781 48.320312 189.125 47.851562 190.175781 47.695312 C 191.226562 47.617188 192.574219 47.929688 193.476562 48.476562 C 194.375 49.023438 194.976562 49.648438 195.648438 51.132812 C 197.148438 54.804688 197.824219 64.800781 198.273438 73.160156 C 198.949219 84.25 198.949219 106.589844 198.273438 111.824219 C 198.125 113.152344 198.050781 113.621094 197.675781 114.324219 C 197.300781 115.101562 196.773438 115.804688 196.023438 116.273438 C 195.125 116.898438 193.550781 117.367188 192.425781 117.210938 C 191.300781 117.054688 189.875 116.351562 189.125 115.414062 C 188.375 114.558594 187.773438 111.824219 187.773438 111.824219 " clip-rule="nonzero"/></clipPath><clipPath id="ed55c7b612"><path d="M 0.316406 0.660156 L 13.847656 0.660156 L 13.847656 70.296875 L 0.316406 70.296875 Z M 0.316406 0.660156 " clip-rule="nonzero"/></clipPath><clipPath id="972f14258b"><path d="M 2.773438 64.824219 C 2.324219 18.503906 -0.148438 10.695312 0.449219 6.398438 C 0.824219 4.289062 1.574219 2.726562 2.550781 1.789062 C 3.375 1.007812 4.648438 0.617188 5.773438 0.695312 C 7.125 0.773438 9.226562 2.023438 10.050781 3.117188 C 10.800781 4.054688 11.023438 5.382812 10.949219 6.476562 C 10.875 7.570312 10.425781 8.898438 9.75 9.679688 C 9 10.539062 7.875 11.242188 6.824219 11.476562 C 5.773438 11.710938 4.5 11.710938 3.523438 11.085938 C 2.324219 10.382812 0.75 8.507812 0.523438 7.023438 C 0.300781 5.539062 1.199219 3.195312 2.101562 2.179688 C 2.925781 1.320312 4.125 0.851562 5.175781 0.695312 C 6.226562 0.617188 7.574219 0.929688 8.476562 1.476562 C 9.375 2.023438 9.976562 2.648438 10.648438 4.132812 C 12.148438 7.804688 12.824219 17.800781 13.273438 26.160156 C 13.949219 37.25 13.949219 59.589844 13.273438 64.824219 C 13.125 66.152344 13.050781 66.621094 12.675781 67.324219 C 12.300781 68.101562 11.773438 68.804688 11.023438 69.273438 C 10.125 69.898438 8.550781 70.367188 7.425781 70.210938 C 6.300781 70.054688 4.875 69.351562 4.125 68.414062 C 3.375 67.558594 2.773438 64.824219 2.773438 64.824219 " clip-rule="nonzero"/></clipPath><clipPath id="3cc6bdefeb"><rect x="0" width="14" y="0" height="71"/></clipPath><clipPath id="078f35ce30"><path d="M 186.601562 322.800781 L 196.929688 322.800781 L 196.929688 333.324219 L 186.601562 333.324219 Z M 186.601562 322.800781 " clip-rule="nonzero"/></clipPath><clipPath id="41eb667fd7"><path d="M 196.925781 326.515625 C 196.925781 329.816406 196.550781 330.640625 196.023438 331.316406 C 195.574219 331.914062 194.824219 332.515625 194.074219 332.816406 C 193.324219 333.191406 192.425781 333.339844 191.601562 333.265625 C 190.773438 333.265625 189.875 332.964844 189.199219 332.515625 C 188.523438 332.140625 187.851562 331.464844 187.398438 330.789062 C 187.023438 330.039062 186.726562 329.140625 186.648438 328.390625 C 186.648438 327.566406 186.800781 326.664062 187.101562 325.914062 C 187.476562 325.164062 188 324.414062 188.675781 323.890625 C 189.273438 323.441406 190.175781 322.988281 190.925781 322.914062 C 191.75 322.765625 192.726562 322.765625 193.476562 323.066406 C 194.226562 323.289062 195.648438 324.339844 195.648438 324.339844 " clip-rule="nonzero"/></clipPath><clipPath id="27fb9d73aa"><path d="M 0.601562 0.800781 L 10.929688 0.800781 L 10.929688 11.324219 L 0.601562 11.324219 Z M 0.601562 0.800781 " clip-rule="nonzero"/></clipPath><clipPath id="fcc6e082eb"><path d="M 10.925781 4.515625 C 10.925781 7.816406 10.550781 8.640625 10.023438 9.316406 C 9.574219 9.914062 8.824219 10.515625 8.074219 10.816406 C 7.324219 11.191406 6.425781 11.339844 5.601562 11.265625 C 4.773438 11.265625 3.875 10.964844 3.199219 10.515625 C 2.523438 10.140625 1.851562 9.464844 1.398438 8.789062 C 1.023438 8.039062 0.726562 7.140625 0.648438 6.390625 C 0.648438 5.566406 0.800781 4.664062 1.101562 3.914062 C 1.476562 3.164062 2 2.414062 2.675781 1.890625 C 3.273438 1.441406 4.175781 0.988281 4.925781 0.914062 C 5.75 0.765625 6.726562 0.765625 7.476562 1.066406 C 8.226562 1.289062 9.648438 2.339844 9.648438 2.339844 " clip-rule="nonzero"/></clipPath><clipPath id="1d75bc1167"><rect x="0" width="11" y="0" height="12"/></clipPath><clipPath id="be6c419246"><path d="M 192.304688 332.816406 L 193.78125 332.816406 L 193.78125 334.039062 L 192.304688 334.039062 Z M 192.304688 332.816406 " clip-rule="nonzero"/></clipPath><clipPath id="d8cb36b3c6"><path d="M 193.773438 333.265625 C 193.101562 334.238281 192.5 334.089844 192.351562 333.863281 C 192.273438 333.640625 192.351562 333.039062 192.574219 332.890625 C 192.726562 332.738281 193.550781 332.964844 193.550781 332.964844 " clip-rule="nonzero"/></clipPath><clipPath id="aa74f7c22a"><path d="M 0.304688 0.816406 L 1.78125 0.816406 L 1.78125 2.039062 L 0.304688 2.039062 Z M 0.304688 0.816406 " clip-rule="nonzero"/></clipPath><clipPath id="091d12de52"><path d="M 1.773438 1.265625 C 1.101562 2.238281 0.5 2.089844 0.351562 1.863281 C 0.273438 1.640625 0.351562 1.039062 0.574219 0.890625 C 0.726562 0.738281 1.550781 0.964844 1.550781 0.964844 " clip-rule="nonzero"/></clipPath><clipPath id="29bc1e79a8"><rect x="0" width="2" y="0" height="3"/></clipPath><clipPath id="f498632be3"><path d="M 192.007812 332.429688 L 193.5625 332.429688 L 193.5625 335.066406 L 192.007812 335.066406 Z M 192.007812 332.429688 " clip-rule="nonzero"/></clipPath><clipPath id="7ee5393bbf"><path d="M 193.550781 333.191406 C 192.949219 335.066406 192.050781 334.238281 192.125 334.015625 C 192.125 333.863281 193.175781 333.640625 193.324219 333.789062 C 193.476562 334.015625 193.023438 335.066406 192.800781 335.066406 C 192.574219 335.066406 191.898438 333.640625 192.050781 333.191406 C 192.125 332.890625 192.574219 332.441406 192.875 332.441406 C 193.101562 332.441406 193.550781 333.191406 193.550781 333.191406 " clip-rule="nonzero"/></clipPath><clipPath id="0bf63c6458"><path d="M 0.0078125 0.429688 L 1.5625 0.429688 L 1.5625 3.066406 L 0.0078125 3.066406 Z M 0.0078125 0.429688 " clip-rule="nonzero"/></clipPath><clipPath id="849e30a3e3"><path d="M 1.550781 1.191406 C 0.949219 3.066406 0.0507812 2.238281 0.125 2.015625 C 0.125 1.863281 1.175781 1.640625 1.324219 1.789062 C 1.476562 2.015625 1.023438 3.066406 0.800781 3.066406 C 0.574219 3.066406 -0.101562 1.640625 0.0507812 1.191406 C 0.125 0.890625 0.574219 0.441406 0.875 0.441406 C 1.101562 0.441406 1.550781 1.191406 1.550781 1.191406 " clip-rule="nonzero"/></clipPath><clipPath id="2a8d20f066"><rect x="0" width="2" y="0" height="4"/></clipPath><clipPath id="6ad642a6c5"><path d="M 192.15625 333.6875 L 193.632812 333.6875 L 193.632812 334.910156 L 192.15625 334.910156 Z M 192.15625 333.6875 " clip-rule="nonzero"/></clipPath><clipPath id="b4e2ffbac1"><path d="M 193.625 334.089844 C 192.949219 335.140625 192.351562 334.914062 192.199219 334.765625 C 192.125 334.539062 192.199219 333.941406 192.425781 333.789062 C 192.574219 333.566406 193.398438 333.789062 193.398438 333.789062 " clip-rule="nonzero"/></clipPath><clipPath id="146a7e5059"><path d="M 0.15625 0.6875 L 1.632812 0.6875 L 1.632812 1.910156 L 0.15625 1.910156 Z M 0.15625 0.6875 " clip-rule="nonzero"/></clipPath><clipPath id="d0355b10a9"><path d="M 1.625 1.089844 C 0.949219 2.140625 0.351562 1.914062 0.199219 1.765625 C 0.125 1.539062 0.199219 0.941406 0.425781 0.789062 C 0.574219 0.566406 1.398438 0.789062 1.398438 0.789062 " clip-rule="nonzero"/></clipPath><clipPath id="a2c46e35c7"><rect x="0" width="2" y="0" height="2"/></clipPath><clipPath id="ff3835dd49"><path d="M 192.15625 334.167969 L 193.574219 334.167969 L 193.574219 335.390625 L 192.15625 335.390625 Z M 192.15625 334.167969 " clip-rule="nonzero"/></clipPath><clipPath id="088e982a07"><path d="M 193.550781 334.613281 C 192.949219 335.589844 192.351562 335.441406 192.199219 335.214844 C 192.125 334.988281 192.199219 334.390625 192.425781 334.238281 C 192.574219 334.089844 193.398438 334.316406 193.398438 334.316406 " clip-rule="nonzero"/></clipPath><clipPath id="1235d6c147"><path d="M 0.15625 0.167969 L 1.574219 0.167969 L 1.574219 1.390625 L 0.15625 1.390625 Z M 0.15625 0.167969 " clip-rule="nonzero"/></clipPath><clipPath id="34e32a2675"><path d="M 1.550781 0.613281 C 0.949219 1.589844 0.351562 1.441406 0.199219 1.214844 C 0.125 0.988281 0.199219 0.390625 0.425781 0.238281 C 0.574219 0.0898438 1.398438 0.316406 1.398438 0.316406 " clip-rule="nonzero"/></clipPath><clipPath id="9c44ba17bd"><rect x="0" width="2" y="0" height="2"/></clipPath><clipPath id="6a5381bb6a"><path d="M 191.855469 47.5625 L 193.332031 47.5625 L 193.332031 48.785156 L 191.855469 48.785156 Z M 191.855469 47.5625 " clip-rule="nonzero"/></clipPath><clipPath id="01bc87be88"><path d="M 193.324219 47.964844 C 192.648438 49.015625 192.050781 48.789062 191.898438 48.640625 C 191.824219 48.414062 191.898438 47.816406 192.125 47.664062 C 192.273438 47.441406 193.101562 47.664062 193.101562 47.664062 " clip-rule="nonzero"/></clipPath><clipPath id="65ca0850a9"><path d="M 0.855469 0.5625 L 2.332031 0.5625 L 2.332031 1.785156 L 0.855469 1.785156 Z M 0.855469 0.5625 " clip-rule="nonzero"/></clipPath><clipPath id="43c05e7dbb"><path d="M 2.324219 0.964844 C 1.648438 2.015625 1.050781 1.789062 0.898438 1.640625 C 0.824219 1.414062 0.898438 0.816406 1.125 0.664062 C 1.273438 0.441406 2.101562 0.664062 2.101562 0.664062 " clip-rule="nonzero"/></clipPath><clipPath id="872e95001e"><rect x="0" width="3" y="0" height="2"/></clipPath></defs><g clip-path="url(#694cc601e3)"><g><g clip-path="url(#69832026c0)"><g clip-path="url(#baa78c5f33)"><path fill="#ffffff" d="M 0 -27.820312 L 43.527344 -27.820312 L 43.527344 410.855469 L 0 410.855469 Z M 0 -27.820312 " fill-opacity="1" fill-rule="nonzero"/></g></g></g></g><g clip-path="url(#10c1ca0da6)"><g clip-path="url(#8b3fdbf478)"><g transform="matrix(1, 0, 0, 1, 193, 47)"><g clip-path="url(#76b9a6dcbf)"><g clip-path="url(#f1ea5acdee)"><g clip-path="url(#886bcbc443)"><path fill="#fbbf24" d="M 0.078125 288.363281 L 0.078125 0.714844 L 170.933594 0.714844 L 170.933594 288.363281 Z M 0.078125 288.363281 " fill-opacity="1" fill-rule="nonzero"/></g></g></g></g></g></g><g clip-path="url(#df4f191023)"><g transform="matrix(1, 0, 0, 1, 75, 47)"><g clip-path="url(#2cdbfe6a55)"><g clip-path="url(#7a84ad4e2f)"><path fill="#fbbf24" d="M 0.542969 0.589844 L 117.898438 0.589844 L 117.898438 288.480469 L 0.542969 288.480469 Z M 0.542969 0.589844 " fill-opacity="1" fill-rule="nonzero"/></g></g></g></g><g clip-path="url(#567aad3da1)"><g clip-path="url(#3959ec0a80)"><g transform="matrix(1, 0, 0, 1, 139, 61)"><g clip-path="url(#f7d8359857)"><g clip-path="url(#a440be9f9e)"><g clip-path="url(#c6182f4991)"><rect x="-223.48" width="552.96" fill="#fbbf23" height="552.959979" y="-145.479997" fill-opacity="1"/></g></g></g></g></g></g><g clip-path="url(#3d1a4d320e)"><g clip-path="url(#6389db1fba)"><g transform="matrix(1, 0, 0, 1, 184, 106)"><g clip-path="url(#c3169718c5)"><g clip-path="url(#61ffde7ca1)"><g clip-path="url(#48c54d679f)"><rect x="-268.48" width="552.96" fill="#fbbf23" height="552.959979" y="-190.479997" fill-opacity="1"/></g></g></g></g></g></g><g clip-path="url(#29c9d40e84)"><g clip-path="url(#d160ec711e)"><g transform="matrix(1, 0, 0, 1, 184, 49)"><g clip-path="url(#59012d5102)"><g clip-path="url(#e28f63073a)"><g clip-path="url(#708cf090fb)"><rect x="-268.48" width="552.96" fill="#fbbf23" height="552.959979" y="-133.479997" fill-opacity="1"/></g></g></g></g></g></g><g clip-path="url(#862242cabb)"><g clip-path="url(#b79215d710)"><g transform="matrix(1, 0, 0, 1, 183, 322)"><g clip-path="url(#c3c27fda50)"><g clip-path="url(#72142ffa34)"><g clip-path="url(#29e7840dec)"><rect x="-267.48" width="552.96" fill="#fbbf23" height="552.959979" y="-406.479997" fill-opacity="1"/></g></g></g></g></g></g><g clip-path="url(#5f5b4e223e)"><g clip-path="url(#1bf12813b7)"><g transform="matrix(1, 0, 0, 1, 185, 47)"><g clip-path="url(#3cc6bdefeb)"><g clip-path="url(#ed55c7b612)"><g clip-path="url(#972f14258b)"><rect x="-269.48" width="552.96" fill="#fbbf23" height="552.959979" y="-131.479997" fill-opacity="1"/></g></g></g></g></g></g><g clip-path="url(#078f35ce30)"><g clip-path="url(#41eb667fd7)"><g transform="matrix(1, 0, 0, 1, 186, 322)"><g clip-path="url(#1d75bc1167)"><g clip-path="url(#27fb9d73aa)"><g clip-path="url(#fcc6e082eb)"><rect x="-270.48" width="552.96" fill="#fbbf23" height="552.959979" y="-406.479997" fill-opacity="1"/></g></g></g></g></g></g><g clip-path="url(#be6c419246)"><g clip-path="url(#d8cb36b3c6)"><g transform="matrix(1, 0, 0, 1, 192, 332)"><g clip-path="url(#29bc1e79a8)"><g clip-path="url(#aa74f7c22a)"><g clip-path="url(#091d12de52)"><rect x="-276.48" width="552.96" fill="#fbbf23" height="552.959979" y="-416.479997" fill-opacity="1"/></g></g></g></g></g></g><g clip-path="url(#f498632be3)"><g clip-path="url(#7ee5393bbf)"><g transform="matrix(1, 0, 0, 1, 192, 332)"><g clip-path="url(#2a8d20f066)"><g clip-path="url(#0bf63c6458)"><g clip-path="url(#849e30a3e3)"><rect x="-276.48" width="552.96" fill="#fbbf23" height="552.959979" y="-416.479997" fill-opacity="1"/></g></g></g></g></g></g><g clip-path="url(#6ad642a6c5)"><g clip-path="url(#b4e2ffbac1)"><g transform="matrix(1, 0, 0, 1, 192, 333)"><g clip-path="url(#a2c46e35c7)"><g clip-path="url(#146a7e5059)"><g clip-path="url(#d0355b10a9)"><rect x="-276.48" width="552.96" fill="#fbbf23" height="552.959979" y="-417.479997" fill-opacity="1"/></g></g></g></g></g></g><g clip-path="url(#ff3835dd49)"><g clip-path="url(#088e982a07)"><g transform="matrix(1, 0, 0, 1, 192, 334)"><g clip-path="url(#9c44ba17bd)"><g clip-path="url(#1235d6c147)"><g clip-path="url(#34e32a2675)"><rect x="-276.48" width="552.96" fill="#fbbf23" height="552.959979" y="-418.479997" fill-opacity="1"/></g></g></g></g></g></g><g clip-path="url(#6a5381bb6a)"><g clip-path="url(#01bc87be88)"><g transform="matrix(1, 0, 0, 1, 191, 47)"><g clip-path="url(#872e95001e)"><g clip-path="url(#65ca0850a9)"><g clip-path="url(#43c05e7dbb)"><rect x="-275.48" width="552.96" fill="#fbbf23" height="552.959979" y="-131.479997" fill-opacity="1"/></g></g></g></g></g></g></svg>